<svg aria-hidden="true" style="position: absolute; width: 0; height: 0; overflow: hidden;" version="1.1" xmlns="http://www.w3.org/2000/svg" xmlns:xlink="http://www.w3.org/1999/xlink">
<defs>
<symbol id="car-logo" viewBox="0 0 53 32">
<path  d="M25.353 8.237c-3.217 0.073-6.133 0.177-6.898 0.244-0.164 0.017 1.383 0.020 3.441 0.010 4.079-0.017 6.53 0.010 6.53 0.073 0 0.020-0.050 0.057-0.107 0.084-0.060 0.027-0.177 0.094-0.261 0.154l-0.15 0.107-0.935 0.023c-0.514 0.013-1.77 0.037-2.789 0.053-4.887 0.084-4.884 0.084-0.735 0.1 2.762 0.013 3.881 0.030 3.945 0.057 0.073 0.033 0.087 0.053 0.070 0.134-0.020 0.114-0.157 0.361-0.421 0.778-0.114 0.174-0.224 0.361-0.251 0.418-0.023 0.053-0.060 0.13-0.080 0.167-0.104 0.194-0.494 0.979-0.524 1.052-0.017 0.047-0.047 0.117-0.067 0.157-0.050 0.12 0.020 0.090 0.080-0.033 0.030-0.057 0.080-0.154 0.114-0.207 0.033-0.057 0.117-0.207 0.19-0.334 0.073-0.13 0.16-0.281 0.194-0.334 0.033-0.057 0.067-0.127 0.077-0.16 0.013-0.030 0.033-0.057 0.050-0.057s0.030-0.013 0.030-0.033c0-0.107 0.715-1.099 0.868-1.203 0.040-0.027 0.157-0.114 0.261-0.19 0.197-0.147 0.508-0.311 0.705-0.374 0.164-0.053 0.568-0.047 0.795 0.013 0.214 0.057 0.481 0.184 0.772 0.371 0.858 0.551 1.253 0.828 1.493 1.056 0.073 0.067 0.124 0.13 0.114 0.14s-0.16-0.003-0.334-0.033c-0.2-0.037-0.588-0.060-1.062-0.070-0.635-0.013-0.792-0.007-1.002 0.043-0.344 0.080-0.518 0.157-0.705 0.314-0.207 0.174-0.287 0.347-0.314 0.701-0.013 0.157-0.030 0.307-0.037 0.334-0.010 0.030-0.1 0.11-0.204 0.184s-0.227 0.164-0.277 0.2c-0.047 0.037-0.124 0.087-0.17 0.107-0.097 0.043-0.721 0.11-1.035 0.11-0.12 0-0.271 0.013-0.334 0.030s-0.251 0.037-0.411 0.047c-0.327 0.017-0.367-0.007-0.291-0.17 0.023-0.050 0.053-0.12 0.067-0.157 0.027-0.067 0.1-0.224 0.544-1.156 0.12-0.254 0.281-0.558 0.354-0.681 0.077-0.124 0.137-0.23 0.137-0.241 0-0.007 0.047-0.080 0.1-0.16 0.057-0.080 0.1-0.154 0.1-0.167 0-0.010 0.053-0.104 0.12-0.207 0.087-0.137 0.107-0.197 0.080-0.224-0.047-0.047-5.632-0.050-7.299-0.007l-1.136 0.033 0.618 0.040c1.476 0.097 2.462 0.187 3.073 0.281 0.755 0.117 1.002 0.16 1.152 0.2 0.073 0.020 0.17 0.047 0.217 0.057 0.15 0.030 0.418 0.117 0.451 0.147 0.017 0.017 0.053 0.030 0.084 0.030 0.077 0 0.464 0.2 0.611 0.317 0.177 0.14 0.321 0.367 0.491 0.768 0.127 0.301 0.21 1.066 0.137 1.259-0.030 0.084-0.094 0.1-0.705 0.207-0.297 0.053-3.621 0.117-6.23 0.124-0.661 0.003-1.557 0.023-1.987 0.043l-0.785 0.043 0.818 0.007c0.451 0.003 2.198-0.013 3.885-0.033 2.201-0.030 3.076-0.030 3.103-0.003 0.043 0.043-0.104 0.063-0.708 0.090-0.571 0.027-3.39 0.077-6.53 0.117-1.339 0.017-2.592 0.040-2.779 0.053-0.374 0.027-0.394 0.040-0.354 0.261 0.043 0.254 0.224 0.484 0.491 0.615 0.17 0.087 0.585 0.241 0.645 0.241 0.023 0 0.157 0.053 0.297 0.117 0.187 0.087 0.307 0.174 0.471 0.337 0.351 0.361 0.438 0.615 0.578 1.717 0.1 0.785 0.16 0.975 0.367 1.149 0.134 0.11 0.364 0.117 0.595 0.017 0.438-0.194 0.808-0.411 0.965-0.561 0.040-0.037 0.084-0.070 0.097-0.070s0.1-0.057 0.194-0.13c0.094-0.070 0.317-0.237 0.498-0.374 0.488-0.367 0.564-0.428 0.675-0.524 0.057-0.050 0.14-0.117 0.187-0.147s0.107-0.077 0.134-0.1c0.027-0.023 0.167-0.137 0.314-0.254s0.291-0.227 0.317-0.251c0.484-0.394 0.711-0.555 1.236-0.865 0.257-0.15 0.287-0.167 0.568-0.324 0.257-0.14 0.818-0.418 0.969-0.478 0.047-0.020 0.107-0.047 0.134-0.060 0.067-0.030 1.015-0.331 1.179-0.371 0.067-0.017 0.18-0.043 0.251-0.060 0.12-0.030 0.261-0.057 0.691-0.134 0.387-0.070 0.975-0.134 1.587-0.17 0.528-0.037 0.725-0.033 1.339 0.013 0.658 0.050 1.032 0.094 1.166 0.14 0.073 0.027-0.023 0.080-0.147 0.080-0.1 0-0.287 0.050-0.394 0.104-0.033 0.017-0.090 0.030-0.127 0.030s-0.094 0.013-0.127 0.030c-0.030 0.017-0.204 0.1-0.384 0.184-0.334 0.157-0.651 0.354-0.858 0.538-0.374 0.331-0.501 0.448-0.969 0.902-0.595 0.581-1.413 1.376-2.088 2.031-0.257 0.247-0.511 0.488-0.568 0.531-0.053 0.043-0.184 0.154-0.284 0.251-0.324 0.301-0.975 0.808-1.403 1.092-0.591 0.391-1.303 0.748-1.77 0.885-0.084 0.023-0.18 0.057-0.217 0.070-0.037 0.017-0.11 0.037-0.167 0.050-0.281 0.057-0.414 0.087-0.534 0.114-0.174 0.037-0.775 0.154-1.056 0.2-0.124 0.020-0.324 0.037-0.451 0.040-0.127 0-0.261 0.013-0.297 0.027-0.053 0.023-0.047 0.030 0.047 0.047 0.321 0.063 1.496-0.027 2.108-0.164 0.12-0.027 0.294-0.063 0.384-0.084 0.18-0.040 0.361-0.090 0.468-0.134 0.037-0.013 0.164-0.057 0.284-0.097 0.311-0.104 1.203-0.544 1.229-0.611 0.007-0.013 0.030-0.023 0.050-0.023 0.023 0 0.104-0.050 0.18-0.11 0.077-0.057 0.197-0.147 0.267-0.197 0.261-0.184 0.999-0.742 1.112-0.838 0.641-0.555 1.146-1.032 2.539-2.395 1.313-1.286 1.807-1.717 2.138-1.861 0.027-0.013 0.057-0.030 0.067-0.043 0.030-0.037 0.384-0.194 0.618-0.271 0.204-0.067 0.297-0.077 0.735-0.077 0.541 0 0.625 0.017 1.042 0.217 0.267 0.127 0.698 0.531 0.902 0.845 0.237 0.367 0.464 0.848 0.418 0.895s-0.14-0.030-0.284-0.241c-0.057-0.084-0.11-0.157-0.12-0.167-0.013-0.010-0.097-0.144-0.187-0.297-0.194-0.324-0.605-0.772-0.711-0.772-0.037 0-0.080-0.017-0.090-0.033-0.013-0.020-0.18-0.033-0.391-0.033-0.341 0-0.384 0.007-0.575 0.1-0.438 0.21-0.885 0.772-1.159 1.46-0.077 0.197-0.094 0.237-0.13 0.377-0.023 0.084-0.053 0.187-0.067 0.234-0.027 0.090-0.063 0.23-0.144 0.551-0.090 0.347-0.197 0.959-0.274 1.553-0.053 0.394-0.13 1.179-0.18 1.854-0.084 1.112-0.157 1.797-0.207 1.991-0.017 0.067-0.030 0.154-0.030 0.194s-0.013 0.097-0.027 0.13c-0.017 0.030-0.067 0.13-0.11 0.224-0.107 0.224-0.337 0.448-0.581 0.564-0.11 0.053-0.227 0.11-0.257 0.127-0.033 0.013-0.094 0.027-0.137 0.027s-0.090 0.013-0.11 0.030c-0.017 0.017-0.097 0.037-0.18 0.043-0.084 0.010-0.277 0.040-0.434 0.073-0.157 0.030-0.364 0.070-0.461 0.090-0.207 0.043-0.501 0.087-0.825 0.134-0.127 0.017-0.324 0.047-0.434 0.067-0.11 0.017-0.297 0.047-0.418 0.063-0.12 0.013-0.254 0.037-0.301 0.047-0.080 0.017-0.301 0.050-0.742 0.117-0.555 0.084-0.895 0.154-0.895 0.177 0 0.017 0.010 0.023 0.027 0.017 0.013-0.010 0.19-0.027 0.391-0.037 0.204-0.013 0.571-0.037 0.818-0.053s0.698-0.047 1.002-0.067c0.571-0.037 0.721-0.050 1.203-0.104 0.575-0.063 0.762-0.090 1.353-0.194 0.311-0.053 0.648-0.16 0.858-0.274 0.090-0.047 0.13-0.037 0.331 0.057 0.1 0.050 0.274 0.124 0.391 0.164 0.367 0.13 0.277 0.164-0.521 0.197-0.287 0.013-0.658 0.037-0.825 0.053-0.164 0.017-0.384 0.033-0.484 0.037-0.157 0.007-0.14 0.010 0.134 0.043 0.438 0.047 2.662 0.047 3.123-0.003 0.538-0.060 0.942-0.134 0.972-0.18 0.010-0.017 0.047-0.030 0.084-0.030 0.033 0 0.090-0.013 0.124-0.030 0.030-0.017 0.134-0.063 0.224-0.104 0.167-0.073 0.534-0.287 0.605-0.351 0.020-0.017 0.087-0.070 0.15-0.117 0.301-0.224 0.698-0.631 0.999-1.029 0.214-0.281 0.224-0.291 0.588-0.474 0.377-0.187 1.109-0.538 1.383-0.661 0.084-0.037 0.384-0.177 0.668-0.317 0.284-0.137 0.578-0.274 0.651-0.307s0.261-0.117 0.418-0.19c0.157-0.073 0.317-0.147 0.361-0.164 0.040-0.017 0.107-0.043 0.15-0.060 0.040-0.017 0.127-0.047 0.19-0.070s0.147-0.053 0.184-0.067c0.13-0.053 0.638-0.194 0.835-0.234 0.11-0.020 0.237-0.047 0.284-0.060 0.097-0.030 0.094 0.013 0.033-0.758-0.053-0.708-0.084-3.347-0.037-3.437 0.020-0.037 0.040-0.19 0.050-0.337 0.023-0.398 0.063-0.628 0.114-0.645s0.050 0.017-0.030 0.661c-0.053 0.434-0.057 2.722-0.003 3.157 0.040 0.327 0.077 0.571 0.124 0.835 0.030 0.157 0.114 0.431 0.21 0.671 0.1 0.254 0.084 0.264-0.544 0.347-0.127 0.020-0.451 0.053-0.718 0.077-0.281 0.023-0.458 0.050-0.424 0.067 0.094 0.037 1.243 0.027 1.563-0.013 0.468-0.057 0.628-0.147 0.748-0.411 0.16-0.361 0.251-0.721 0.354-1.44 0.043-0.287 0.090-3.868 0.057-4.299-0.013-0.17-0.037-0.377-0.057-0.461-0.017-0.084-0.043-0.197-0.053-0.251-0.013-0.057-0.033-0.13-0.050-0.167-0.013-0.037-0.060-0.157-0.104-0.267s-0.13-0.277-0.2-0.367c-0.257-0.347-0.721-0.718-0.902-0.718-0.033 0-0.070-0.017-0.080-0.033-0.010-0.020-0.050-0.033-0.087-0.033-0.033 0-0.090-0.013-0.124-0.030-0.104-0.053-0.294-0.104-0.384-0.104-0.107 0-0.257-0.063-0.257-0.11 0-0.020 0.057-0.15 0.13-0.287 0.207-0.411 0.214-0.534 0.027-0.615-0.154-0.067-0.408-0.124-0.551-0.124-0.067 0-0.177-0.013-0.24-0.030s-0.334-0.040-0.601-0.050c-0.661-0.023-1.58-0.077-2.218-0.124-0.428-0.030-0.554-0.050-0.651-0.107-0.294-0.167-0.885-0.491-0.899-0.491-0.007 0-0.137-0.057-0.284-0.13-0.15-0.070-0.327-0.15-0.391-0.18-0.063-0.027-0.217-0.097-0.344-0.154-0.124-0.057-0.241-0.104-0.257-0.104-0.020 0-0.060-0.013-0.094-0.030-0.157-0.080-0.508-0.194-0.742-0.244-0.367-0.073-0.511-0.094-0.902-0.124-0.448-0.037-3.183-0.067-4.042-0.050zM35.273 10.355c0.695 0.057 0.832 0.090 0.835 0.2 0 0.020-0.578 0.408-0.691 0.464-0.094 0.047-0.167 0.013-0.621-0.294-0.18-0.12-0.354-0.237-0.391-0.254-0.11-0.067-0.167-0.124-0.144-0.16 0.020-0.033 0.127-0.030 1.012 0.043zM37.478 10.392c0 0.117-0.514 0.665-0.671 0.715-0.037 0.013-0.087 0.007-0.107-0.013-0.043-0.043 0.010-0.11 0.227-0.271 0.094-0.067 0.244-0.2 0.334-0.294 0.167-0.174 0.217-0.204 0.217-0.137zM31.532 10.719c0.351 0.063 0.394 0.077 0.571 0.167 0.23 0.114 0.374 0.321 0.424 0.601 0.043 0.237 0.010 0.377-0.104 0.431-0.17 0.084-0.795 0.16-1.627 0.197-0.434 0.020-1.329-0.053-1.58-0.13-0.15-0.047-0.21-0.020-0.428 0.184-0.187 0.18-0.314 0.234-0.518 0.214-0.16-0.013-0.2-0.043-0.154-0.11 0.027-0.037 0.464-0.391 0.621-0.498 0.094-0.067 0.187-0.264 0.187-0.411 0-0.22 0.254-0.521 0.501-0.601 0.063-0.020 0.164-0.053 0.217-0.070 0.127-0.043 1.633-0.020 1.887 0.027zM34.966 11.197c-0.010 0.027-0.114 0.053-0.264 0.067-0.544 0.053-1.156 0.147-1.607 0.247-0.053 0.013-0.094 0.007-0.094-0.007 0-0.043 0.194-0.147 0.271-0.147 0.037 0 0.090-0.013 0.124-0.030 0.030-0.017 0.164-0.047 0.291-0.067 0.13-0.020 0.317-0.047 0.418-0.063 0.297-0.050 0.875-0.047 0.862 0zM34.592 11.394c0.010 0.020-0.087 0.134-0.22 0.257-0.244 0.227-0.762 0.822-0.972 1.126-0.154 0.217-0.464 0.745-0.464 0.785 0 0.020-0.013 0.033-0.033 0.033-0.017 0-0.033 0.023-0.033 0.050s-0.027 0.097-0.060 0.157c-0.107 0.197-0.381 0.892-0.367 0.932 0.010 0.033 0.261-0.344 0.261-0.394 0-0.017 0.478-0.722 0.538-0.788 0.017-0.023 0.104-0.137 0.19-0.257 0.608-0.842 1.333-1.513 1.894-1.747 0.247-0.104 0.307-0.117 0.768-0.14 0.568-0.033 0.658-0.030 1.169 0.017 0.565 0.050 0.798 0.107 1.119 0.261 0.424 0.207 0.658 0.438 0.895 0.879 0.164 0.301 0.184 0.367 0.114 0.341-0.030-0.013-0.087-0.060-0.12-0.104-0.074-0.094-0.247-0.174-0.371-0.174-0.050 0-0.164 0.033-0.254 0.073-0.331 0.14-0.588 0.675-0.735 1.53-0.077 0.444-0.15 1.306-0.18 2.071-0.050 1.353-0.117 1.777-0.331 2.091-0.144 0.21-0.438 0.478-0.638 0.578-0.084 0.040-0.17 0.094-0.194 0.114-0.047 0.043-0.458 0.261-1.132 0.595-0.411 0.204-2.018 1.025-2.141 1.096-0.134 0.073-0.207 0.087-0.237 0.043-0.017-0.030 0.177-0.564 0.247-0.681 0.017-0.033 0.033-0.080 0.033-0.107 0-0.1 0.21-0.251 0.738-0.518 0.301-0.154 0.565-0.291 0.581-0.304 0.040-0.033 0.254-0.154 0.434-0.247 0.174-0.094 0.301-0.174 0.484-0.317 0.207-0.16 0.534-0.478 0.534-0.521 0-0.017 0.030-0.070 0.067-0.117s0.067-0.127 0.067-0.18c0-0.107 0.013-0.107-0.451-0.017-0.090 0.017-0.257 0.047-0.367 0.063s-0.297 0.047-0.418 0.067c-0.12 0.020-0.311 0.043-0.428 0.057-0.204 0.017-0.214 0.023-0.314 0.17-0.060 0.087-0.22 0.264-0.357 0.401-0.197 0.194-0.267 0.241-0.334 0.234-0.080-0.010-0.087-0.023-0.107-0.227-0.087-0.945-0.21-1.443-0.518-2.088-0.124-0.251-0.22-0.414-0.494-0.808-0.194-0.284-0.254-0.404-0.287-0.561-0.107-0.521-0.344-1.079-0.591-1.38-0.14-0.177-0.511-0.541-0.544-0.541-0.013 0-0.067-0.037-0.12-0.084s-0.107-0.084-0.12-0.084c-0.013 0-0.1-0.043-0.194-0.1-0.090-0.053-0.277-0.137-0.411-0.18s-0.241-0.1-0.241-0.124c0-0.084 0.464-0.154 1.303-0.197 0.331-0.017 0.691-0.047 0.802-0.063 0.187-0.030 0.254-0.043 0.595-0.13 0.117-0.030 0.18-0.067 0.281-0.164 0.023-0.020 0.043-0.090 0.043-0.15 0-0.144 0.027-0.18 0.177-0.244s0.718-0.187 1.116-0.244c0.097-0.017 0.184-0.037 0.197-0.050 0.037-0.037 0.107-0.027 0.134 0.013zM29.208 12.329c0.241 0.047 0.441 0.127 0.401 0.16-0.037 0.033-0.564-0.037-0.691-0.090-0.104-0.043-0.094-0.107 0.017-0.107 0.040 0 0.164 0.017 0.274 0.037zM38.547 13.545c0 0.027-0.013 0.057-0.033 0.067-0.020 0.013-0.033-0.017-0.033-0.067s0.013-0.080 0.033-0.067c0.020 0.010 0.033 0.040 0.033 0.067zM39.068 13.655c0.074 0.050 0.194 0.381 0.24 0.658 0.177 1.025 0.21 2.078 0.107 3.274-0.067 0.788-0.177 1.279-0.324 1.453-0.104 0.127-0.16 0.127-0.227 0-0.040-0.077-0.043-0.117-0.013-0.19 0.074-0.18 0.090-0.227 0.124-0.361 0.144-0.551 0.184-1.156 0.164-2.372-0.013-0.571-0.037-1.156-0.053-1.303-0.020-0.147-0.043-0.344-0.057-0.434-0.010-0.094-0.033-0.18-0.050-0.2-0.017-0.017-0.030-0.070-0.030-0.117 0-0.050-0.010-0.1-0.023-0.114-0.053-0.053-0.1-0.251-0.067-0.284 0.043-0.043 0.157-0.047 0.21-0.010zM38.474 13.832c-0.017 0.117-0.094 0.12-0.094 0.003 0-0.053 0.010-0.107 0.023-0.117 0.037-0.040 0.084 0.030 0.070 0.114zM30.587 13.812c0.204 0.060 0.444 0.261 0.618 0.511 0.16 0.23 0.087 0.237-0.344 0.027-0.21-0.104-0.421-0.187-0.471-0.187s-0.097-0.013-0.107-0.030c-0.010-0.017-0.073-0.040-0.137-0.050s-0.17-0.030-0.234-0.040c-0.063-0.010-0.124-0.033-0.134-0.047-0.043-0.070 0.267-0.214 0.501-0.227 0.070-0.007 0.207 0.013 0.307 0.043zM29.745 14.734c0.591 0.15 0.939 0.307 1.386 0.625 0.591 0.421 1.129 1.166 1.339 1.861 0.023 0.073 0.060 0.194 0.084 0.267 0.164 0.504 0.227 1.329 0.144 1.8-0.127 0.725-0.167 0.868-0.374 1.323-0.174 0.381-0.558 0.919-0.855 1.196-0.214 0.2-0.578 0.474-0.631 0.474-0.020 0-0.040 0.013-0.047 0.027-0.027 0.063-0.638 0.321-0.878 0.371-0.241 0.047-0.715 0.104-0.889 0.104-0.207 0-0.708-0.114-1.032-0.234-0.1-0.037-0.187-0.067-0.19-0.067-0.027 0-0.007-0.134 0.023-0.15 0.020-0.010 0.033-0.050 0.033-0.087 0-0.050 0.023-0.063 0.114-0.063 0.063 0 0.127 0.013 0.137 0.033 0.010 0.017 0.057 0.033 0.1 0.033s0.090 0.013 0.1 0.033c0.010 0.017 0.053 0.033 0.097 0.033 0.040 0 0.090 0.017 0.107 0.033 0.047 0.047 1.259 0.047 1.346 0.003 0.037-0.020 0.094-0.037 0.124-0.037 0.1 0 0.651-0.297 0.899-0.484 0.351-0.264 0.661-0.605 0.858-0.935 0.087-0.144 0.311-0.615 0.361-0.752 0.020-0.063 0.053-0.147 0.067-0.184 0.027-0.067 0.037-0.1 0.107-0.434 0.053-0.264 0.070-1.139 0.027-1.403-0.094-0.571-0.24-0.995-0.504-1.486-0.087-0.154-0.341-0.484-0.544-0.695-0.408-0.424-0.818-0.681-1.289-0.808-0.084-0.020-0.197-0.050-0.251-0.067-0.057-0.017-0.234-0.043-0.394-0.053l-0.294-0.023 0.020-0.087c0.010-0.047 0.057-0.12 0.1-0.16 0.070-0.060 0.11-0.070 0.274-0.057 0.107 0.010 0.254 0.033 0.327 0.050zM29.695 15.255c0.281 0.040 0.969 0.344 0.969 0.428 0 0.017-0.104 0.147-0.23 0.287-0.124 0.14-0.311 0.398-0.414 0.568-0.194 0.327-0.424 0.798-0.424 0.868 0 0.023-0.023 0.070-0.057 0.104-0.040 0.047-0.104 0.060-0.277 0.060-0.14 0-0.237-0.017-0.261-0.043-0.057-0.073-0.080-0.578-0.040-0.999 0.047-0.511 0.090-0.685 0.261-1.069 0.084-0.194 0.194-0.277 0.307-0.237 0.027 0.007 0.104 0.023 0.167 0.033zM29.161 15.319c0 0.027-0.013 0.077-0.033 0.114-0.017 0.037-0.047 0.097-0.067 0.134-0.017 0.037-0.033 0.097-0.033 0.13 0 0.037-0.013 0.073-0.030 0.084-0.053 0.037-0.077 0.267-0.1 1.012-0.020 0.688-0.037 0.825-0.094 0.768-0.010-0.013-0.020-0.344-0.017-0.735 0.007-0.661 0.033-0.922 0.117-1.126 0.017-0.047 0.043-0.114 0.057-0.15 0.080-0.21 0.14-0.317 0.17-0.301 0.017 0.013 0.030 0.043 0.030 0.070zM31.646 16.855c0.104 0.040 0.013 0.080-0.18 0.080-0.107 0-0.207 0.013-0.217 0.033-0.010 0.017-0.063 0.033-0.114 0.033-0.194 0-0.752 0.331-1.089 0.641-0.15 0.14-0.184 0.154-0.184 0.067 0-0.030 0.050-0.094 0.11-0.14 0.057-0.047 0.174-0.144 0.257-0.22 0.18-0.16 0.504-0.361 0.668-0.408 0.063-0.020 0.164-0.050 0.217-0.067 0.114-0.037 0.454-0.050 0.531-0.020zM31.806 17.109c0.070 0.107 0.18 0.438 0.24 0.711 0.177 0.828 0.164 0.929-0.084 0.805-0.060-0.030-0.134-0.053-0.167-0.053s-0.070-0.017-0.080-0.033c-0.010-0.020-0.063-0.033-0.117-0.033s-0.104-0.013-0.114-0.030c-0.043-0.070-0.758-0.11-1.076-0.060l-0.17 0.027-0.14-0.274c-0.077-0.15-0.13-0.297-0.12-0.327 0.033-0.087 0.511-0.444 0.661-0.494 0.030-0.010 0.057-0.027 0.057-0.040 0-0.010 0.050-0.040 0.11-0.063 0.057-0.023 0.137-0.060 0.17-0.080 0.070-0.037 0.508-0.117 0.675-0.124 0.077-0.003 0.12 0.020 0.154 0.070zM28.503 17.744l0.063 0.14-0.107 0.21c-0.060 0.117-0.12 0.21-0.137 0.21-0.043 0-0.037-0.421 0.010-0.571 0.020-0.073 0.053-0.13 0.073-0.13s0.063 0.063 0.097 0.14zM30.49 18.913c0.087 0.040 0.164 0.080 0.174 0.090 0.010 0.013 0.060 0.043 0.11 0.070 0.157 0.077 0.651 0.561 0.802 0.782 0.187 0.264 0.237 0.371 0.214 0.434-0.027 0.067-0.090 0.070-0.090 0.003s-0.12-0.274-0.251-0.438c-0.18-0.217-0.387-0.411-0.735-0.671-0.020-0.017-0.1-0.063-0.184-0.107-0.17-0.090-0.267-0.167-0.267-0.21s0.057-0.033 0.227 0.047zM28.439 19.317l0.13 0.274-0.164 0.14c-0.244 0.217-0.254 0.207-0.23-0.234 0.013-0.204 0.027-0.394 0.033-0.418 0.033-0.097 0.11-0.020 0.23 0.237zM30.467 19.143c0.618 0.364 1.199 1.039 1.206 1.396 0.003 0.194-0.271 0.578-0.691 0.979-0.207 0.197-0.261 0.22-0.277 0.107-0.003-0.033-0.020-0.117-0.037-0.18s-0.050-0.2-0.070-0.301c-0.060-0.274-0.301-0.965-0.367-1.052-0.017-0.020-0.077-0.124-0.134-0.234-0.060-0.11-0.12-0.214-0.134-0.227-0.030-0.037 0.241-0.591 0.291-0.591 0.023 0 0.12 0.047 0.214 0.104zM28.66 19.724c0 0.060-0.404 0.418-0.471 0.418-0.073 0-0.017-0.1 0.11-0.204 0.237-0.194 0.361-0.267 0.361-0.214zM29.491 19.905c0.073 0.047 0.124 0.635 0.077 0.912-0.023 0.127-0.040 0.274-0.040 0.334 0 0.057-0.017 0.164-0.037 0.241-0.084 0.324-0.11 0.408-0.137 0.434-0.013 0.020-0.027 0.057-0.027 0.087 0 0.027-0.040 0.107-0.087 0.177l-0.087 0.13-0.237-0.017c-0.287-0.017-0.441-0.053-0.715-0.16l-0.21-0.080v-0.137c0-0.077 0.020-0.174 0.043-0.217 0.057-0.11 0.257-0.401 0.331-0.478 0.033-0.037 0.060-0.087 0.060-0.11s0.010-0.043 0.027-0.043c0.013 0 0.043-0.050 0.070-0.11 0.027-0.057 0.057-0.114 0.067-0.124 0.040-0.030 0.337-0.695 0.337-0.745 0-0.030 0.027-0.070 0.060-0.087 0.070-0.043 0.441-0.047 0.504-0.007zM29.745 20.242c0.023 0.371-0.010 1.059-0.053 1.089-0.017 0.010-0.030 0.084-0.030 0.164s-0.013 0.157-0.033 0.167c-0.017 0.010-0.033 0.057-0.033 0.104 0 0.043-0.013 0.107-0.030 0.14-0.017 0.030-0.050 0.1-0.073 0.154-0.047 0.094-0.117 0.147-0.154 0.11-0.010-0.013 0.020-0.104 0.070-0.2 0.047-0.1 0.087-0.204 0.087-0.234 0-0.033 0.013-0.057 0.030-0.057 0.050 0 0.073-0.281 0.090-1.002 0.010-0.377 0.023-0.705 0.030-0.728 0.040-0.114 0.077-0.007 0.1 0.294z"></path>
<path  d="M35.217 12.74c-0.22 0.043-0.317 0.107-0.408 0.271-0.047 0.090-0.053 0.324-0.063 2.205-0.003 1.54 0.003 2.088 0.030 2.044 0.020-0.033 0.070-0.194 0.114-0.357 0.070-0.254 0.087-0.421 0.117-1.243 0.017-0.518 0.033-1.203 0.033-1.513 0-0.401 0.013-0.615 0.050-0.728 0.050-0.17 0.157-0.287 0.261-0.291 0.033 0 0.090-0.013 0.124-0.033 0.033-0.017 0.277-0.033 0.538-0.037 0.428 0 0.484 0.007 0.524 0.060 0.037 0.050 0.033 0.067-0.023 0.114-0.050 0.040-0.184 0.057-0.595 0.073-0.494 0.020-0.531 0.027-0.585 0.097-0.11 0.147-0.127 0.341-0.127 1.496 0 1.106-0.030 1.643-0.104 1.921-0.080 0.294-0.177 0.588-0.204 0.605-0.013 0.010-0.027 0.057-0.027 0.104 0 0.077 0.010 0.084 0.11 0.063 0.057-0.010 0.227-0.037 0.374-0.057 0.788-0.11 0.832-0.127 0.942-0.347 0.104-0.204 0.244-0.808 0.297-1.269 0.007-0.073 0.023-0.187 0.033-0.251s0.033-0.244 0.050-0.401c0.027-0.267 0.057-0.521 0.13-1.102 0.037-0.311 0.084-0.625 0.134-0.885 0.070-0.371 0.077-0.481 0.033-0.534-0.033-0.043-0.16-0.050-0.798-0.047-0.448 0.003-0.838 0.020-0.962 0.043z"></path>
<path   d="M23.866 14.25c-0.073 0.007-0.321 0.027-0.551 0.047-0.758 0.067-1.436 0.197-1.787 0.354-0.057 0.023-0.137 0.057-0.184 0.073-0.14 0.053-0.598 0.398-1.052 0.792-0.675 0.588-0.862 0.808-0.371 0.441 0.341-0.257 0.932-0.658 1.229-0.838 0.381-0.23 0.775-0.337 1.547-0.424 0.418-0.047 1.139-0.077 1.206-0.050 0.11 0.043-0.007 0.084-0.337 0.12-0.184 0.020-0.538 0.060-0.785 0.087s-0.518 0.063-0.601 0.084c-0.084 0.020-0.217 0.050-0.301 0.070-0.154 0.037-0.768 0.324-0.882 0.411-0.037 0.027-0.053 0.060-0.043 0.073 0.013 0.010 0.057-0.010 0.1-0.047 0.063-0.060 0.274-0.167 0.541-0.277 0.21-0.087 0.815-0.127 0.949-0.067 0.214 0.1 0.257 0.134 0.317 0.244 0.060 0.107 0.063 0.127 0.020 0.261-0.12 0.371-0.287 0.524-0.818 0.732-0.124 0.050-0.611 0.15-0.885 0.18-0.063 0.007-0.12 0.017-0.124 0.017-0.003 0.003 0.030 0.057 0.073 0.124 0.107 0.157 0.117 0.474 0.020 0.631-0.137 0.227-0.461 0.454-0.772 0.544-0.084 0.023-0.197 0.060-0.254 0.077s-0.261 0.033-0.454 0.033c-0.391 0.003-0.521-0.043-0.648-0.23l-0.070-0.104-0.040 0.084c-0.063 0.14-0.043 0.204 0.114 0.341 0.084 0.073 0.15 0.14 0.15 0.15 0 0.043-0.418 0.21-0.651 0.257-0.073 0.017-0.2 0.047-0.284 0.067s-0.207 0.050-0.277 0.063c-0.070 0.017-0.137 0.037-0.147 0.050-0.070 0.070 0.979-0.077 1.52-0.21 0.077-0.020 0.197-0.050 0.267-0.067 0.939-0.227 1.881-0.705 2.696-1.37 0.735-0.598 2.432-2.241 2.509-2.428 0.043-0.104 0.040-0.117-0.033-0.204-0.077-0.090-0.090-0.094-0.428-0.097-0.187-0.003-0.404 0-0.478 0.007z"></path>
<path d="M24.685 18.228c-0.1 0.020-0.184 0.077-0.601 0.411-0.494 0.394-0.792 0.608-1.136 0.825-0.347 0.217-0.915 0.544-0.945 0.544-0.013 0-0.107 0.040-0.21 0.087-0.347 0.16-0.932 0.374-1.166 0.428-0.13 0.030-0.287 0.070-0.351 0.087-0.317 0.084-0.681 0.127-1.37 0.164-0.304 0.017-0.768 0.043-1.035 0.057-0.571 0.030-0.534 0.040 0.575 0.147 0.544 0.050 0.979 0.067 1.73 0.067 1.259 0 1.233-0.010 1.236 0.464 0 0.244-0.013 0.304-0.107 0.501-0.057 0.12-0.18 0.317-0.271 0.434l-0.167 0.214 0.114-0.020c0.063-0.013 0.19-0.040 0.281-0.060 0.094-0.020 0.22-0.047 0.284-0.060s0.17-0.050 0.234-0.077c0.063-0.030 0.19-0.084 0.277-0.124 0.284-0.127 0.701-0.424 0.929-0.658 0.251-0.261 0.464-0.558 0.464-0.651 0-0.033 0.013-0.067 0.030-0.077s0.040-0.077 0.050-0.144c0.013-0.070 0.037-0.21 0.053-0.311s0.047-0.347 0.063-0.544c0.033-0.387 0.070-0.474 0.227-0.564 0.167-0.097 0.187-0.050 0.164 0.394-0.027 0.558-0.057 0.825-0.090 0.862-0.017 0.020-0.030 0.063-0.030 0.1-0.003 0.187-0.241 0.688-0.454 0.945-0.267 0.331-0.571 0.571-0.932 0.742-0.287 0.134-0.361 0.164-0.868 0.344-0.354 0.124-0.361 0.127-0.184 0.11 0.464-0.040 1.403-0.261 1.643-0.387 0.033-0.017 0.084-0.030 0.11-0.030s0.077-0.013 0.11-0.033c0.030-0.017 0.157-0.077 0.281-0.13 0.281-0.127 0.648-0.364 0.785-0.508 0.441-0.471 0.611-1.199 0.621-2.679 0.003-0.698-0.003-0.835-0.043-0.858-0.050-0.033-0.154-0.037-0.301-0.010z"></path>
<path  d="M17.63 18.662c0.020 0.007 0.060 0.007 0.084 0 0.020-0.010 0.003-0.017-0.043-0.017s-0.063 0.007-0.040 0.017z"></path>
</symbol>
<symbol id="close-btn" viewBox="0 0 32 32">
<path stroke-linejoin="round" stroke-linecap="round" stroke-miterlimit="4" stroke-width="2.4615" d="M24 8l-16 16"></path>
<path stroke-linejoin="round" stroke-linecap="round" stroke-miterlimit="4" stroke-width="2.4615" d="M8 8l16 16"></path>
</symbol>
<symbol id="fav-icon" viewBox="0 0 32 32">
<path stroke-linejoin="round" stroke-linecap="round" stroke-miterlimit="4" stroke-width="2.6667" d="M27.787 6.147c-0.681-0.681-1.49-1.222-2.38-1.591s-1.844-0.559-2.807-0.559c-0.963 0-1.917 0.19-2.807 0.559s-1.698 0.909-2.38 1.591l-1.413 1.413-1.413-1.413c-1.376-1.376-3.241-2.148-5.187-2.148s-3.811 0.773-5.187 2.148c-1.376 1.376-2.148 3.241-2.148 5.187s0.773 3.811 2.148 5.187l11.787 11.787 11.787-11.787c0.681-0.681 1.222-1.49 1.591-2.38s0.559-1.844 0.559-2.807c0-0.963-0.19-1.917-0.559-2.807s-0.909-1.699-1.591-2.38z"></path>
</symbol>
<symbol id="x" viewBox="0 0 32 32">
<path stroke-linejoin="round" stroke-linecap="round" stroke-miterlimit="4" stroke-width="2.4" d="M24 8l-16 16"></path>
<path stroke-linejoin="round" stroke-linecap="round" stroke-miterlimit="4" stroke-width="2.4" d="M8 8l16 16"></path>
</symbol>
<symbol id="fav-icon" viewBox="0 0 32 32">
<path stroke-linejoin="round" stroke-linecap="round" stroke-miterlimit="4" stroke-width="2.6667" d="M27.787 6.147c-0.681-0.681-1.49-1.222-2.38-1.591s-1.844-0.559-2.807-0.559c-0.963 0-1.917 0.19-2.807 0.559s-1.698 0.909-2.38 1.591l-1.413 1.413-1.413-1.413c-1.376-1.376-3.241-2.148-5.187-2.148s-3.811 0.773-5.187 2.148c-1.376 1.376-2.148 3.241-2.148 5.187s0.773 3.811 2.148 5.187l11.787 11.787 11.787-11.787c0.681-0.681 1.222-1.49 1.591-2.38s0.559-1.844 0.559-2.807c0-0.963-0.19-1.917-0.559-2.807s-0.909-1.699-1.591-2.38z"></path>
</symbol>
<symbol id="icon-up" viewBox="0 0 32 32">
<path stroke-linejoin="round" stroke-linecap="round" stroke-miterlimit="4" stroke-width="3.2" d="M8 20l8-8 8 8"></path>
</symbol>
<symbol id="icon-down" viewBox="0 0 32 32">
<path stroke-linejoin="round" stroke-linecap="round" stroke-miterlimit="4" stroke-width="3.2" d="M8 12l8 8 8-8"></path>
</symbol>
<symbol id="close_icon" viewBox="0 0 32 32">
<path stroke-linejoin="round" stroke-linecap="round" stroke-miterlimit="4" stroke-width="2.4615" d="M24 8l-16 16"></path>
<path stroke-linejoin="round" stroke-linecap="round" stroke-miterlimit="4" stroke-width="2.4615" d="M8 8l16 16"></path>
</symbol>
</defs>
</svg>
